<svg width="124" height="28" viewBox="0 0 124 28" fill="none" xmlns="http://www.w3.org/2000/svg">
<path d="M13.9341 27.9247C12.0467 27.9247 10.3009 27.5826 8.69656 26.8984C7.11585 26.2142 5.72389 25.2587 4.52067 24.0319C3.34104 22.8051 2.42093 21.3659 1.76033 19.7144C1.09974 18.063 0.769444 16.2581 0.769444 14.2999C0.769444 12.3418 1.08794 10.5369 1.72494 8.88544C2.38554 7.21037 3.30565 5.77122 4.48528 4.568C5.6885 3.34118 7.09226 2.39748 8.69656 1.73689C10.3009 1.0527 12.0467 0.71061 13.9341 0.71061C15.8215 0.71061 17.5084 1.02911 18.9947 1.66611C20.5046 2.30311 21.7786 3.15244 22.8167 4.21411C23.8548 5.25218 24.598 6.39642 25.0462 7.64683L20.7288 9.664C20.2333 8.34281 19.3958 7.25756 18.2162 6.40822C17.0365 5.5353 15.6092 5.09883 13.9341 5.09883C12.2826 5.09883 10.8199 5.48811 9.54589 6.26667C8.29548 7.04522 7.31639 8.11868 6.60861 9.48706C5.92443 10.8554 5.58233 12.4597 5.58233 14.2999C5.58233 16.1402 5.92443 17.7563 6.60861 19.1482C7.31639 20.5166 8.29548 21.5901 9.54589 22.3686C10.8199 23.1472 12.2826 23.5364 13.9341 23.5364C15.6092 23.5364 17.0365 23.1118 18.2162 22.2624C19.3958 21.3895 20.2333 20.2925 20.7288 18.9713L25.0462 20.9884C24.598 22.2389 23.8548 23.3949 22.8167 24.4566C21.7786 25.4946 20.5046 26.3322 18.9947 26.9692C17.5084 27.6062 15.8215 27.9247 13.9341 27.9247Z" fill="#8E7FFF"/>
<path d="M34.0579 27.9247C32.7132 27.9247 31.5453 27.7005 30.5544 27.2523C29.5636 26.804 28.7968 26.167 28.2542 25.3413C27.7115 24.4919 27.4402 23.5129 27.4402 22.404C27.4402 21.3423 27.6762 20.3986 28.148 19.5729C28.6199 18.7236 29.3512 18.0158 30.3421 17.4496C31.333 16.8833 32.5834 16.4823 34.0933 16.2463L40.3926 15.2201V18.7589L34.9781 19.6791C34.0579 19.8442 33.3738 20.1391 32.9255 20.5638C32.4772 20.9884 32.2531 21.5429 32.2531 22.2271C32.2531 22.8876 32.5008 23.4185 32.9963 23.8196C33.5153 24.197 34.1523 24.3858 34.9073 24.3858C35.8746 24.3858 36.7239 24.1852 37.4553 23.7842C38.2102 23.3595 38.7883 22.7815 39.1893 22.0501C39.614 21.3187 39.8263 20.5166 39.8263 19.6437V14.6892C39.8263 13.8635 39.496 13.1793 38.8354 12.6367C38.1984 12.0704 37.3491 11.7873 36.2874 11.7873C35.2966 11.7873 34.4118 12.0586 33.6333 12.6013C32.8783 13.1203 32.3239 13.8163 31.97 14.6892L28.1834 12.849C28.5609 11.8345 29.1507 10.9616 29.9528 10.2302C30.7786 9.47526 31.7459 8.88544 32.8547 8.46078C33.9636 8.03611 35.1668 7.82378 36.4644 7.82378C38.0451 7.82378 39.4371 8.11868 40.6403 8.7085C41.8435 9.27472 42.7754 10.0769 43.436 11.1149C44.1202 12.1294 44.4623 13.3209 44.4623 14.6892V27.5H40.0741V24.2088L41.0649 24.1381C40.5695 24.9638 39.9797 25.6598 39.2955 26.226C38.6113 26.7686 37.8328 27.1933 36.9598 27.5C36.0869 27.7831 35.1196 27.9247 34.0579 27.9247ZM48.7471 27.5V8.24844H53.0999V12.5305L52.746 11.8935C53.1943 10.4544 53.8903 9.45167 54.834 8.88544C55.8013 8.31922 56.9573 8.03611 58.3021 8.03611H59.4345V12.1412H57.7713C56.4501 12.1412 55.3884 12.5541 54.5863 13.3798C53.7841 14.182 53.383 15.3144 53.383 16.7772V27.5H48.7471ZM71.1137 27.9247C69.1319 27.9247 67.3979 27.4764 65.9115 26.5799C64.4252 25.6834 63.2692 24.4684 62.4434 22.9348C61.6177 21.4013 61.2048 19.7026 61.2048 17.8388C61.2048 15.9042 61.6177 14.1938 62.4434 12.7074C63.2928 11.1975 64.437 10.0061 65.8762 9.13316C67.3389 8.26024 68.9668 7.82378 70.7598 7.82378C72.2697 7.82378 73.5909 8.0715 74.7234 8.56694C75.8794 9.06239 76.8585 9.74657 77.6607 10.6195C78.4628 11.4924 79.0762 12.4951 79.5009 13.6276C79.9255 14.7364 80.1379 15.9396 80.1379 17.2372C80.1379 17.5675 80.1143 17.9096 80.0671 18.2635C80.0435 18.6174 79.9845 18.9241 79.8902 19.1836H65.0268V15.6447H77.2714L75.0773 17.308C75.2896 16.2227 75.2306 15.2554 74.9003 14.4061C74.5936 13.5568 74.0746 12.8844 73.3432 12.3889C72.6354 11.8935 71.7743 11.6458 70.7598 11.6458C69.7925 11.6458 68.9314 11.8935 68.1764 12.3889C67.4215 12.8608 66.8435 13.5686 66.4424 14.5123C66.0649 15.4324 65.9233 16.553 66.0177 17.8742C65.9233 19.0539 66.0767 20.1037 66.4778 21.0238C66.9024 21.9204 67.5158 22.6163 68.318 23.1118C69.1437 23.6072 70.0874 23.8549 71.1491 23.8549C72.2108 23.8549 73.1073 23.6308 73.8387 23.1826C74.5936 22.7343 75.1834 22.1327 75.6081 21.3777L79.3593 23.2179C78.9818 24.1381 78.392 24.952 77.5899 25.6598C76.7877 26.3676 75.8322 26.922 74.7234 27.3231C73.6381 27.7241 72.4349 27.9247 71.1137 27.9247ZM92.7825 27.9247C90.8007 27.9247 89.0667 27.4764 87.5803 26.5799C86.094 25.6834 84.938 24.4684 84.1122 22.9348C83.2865 21.4013 82.8736 19.7026 82.8736 17.8388C82.8736 15.9042 83.2865 14.1938 84.1122 12.7074C84.9616 11.1975 86.1058 10.0061 87.5449 9.13316C89.0077 8.26024 90.6356 7.82378 92.4286 7.82378C93.9385 7.82378 95.2597 8.0715 96.3922 8.56694C97.5482 9.06239 98.5273 9.74657 99.3294 10.6195C100.132 11.4924 100.745 12.4951 101.17 13.6276C101.594 14.7364 101.807 15.9396 101.807 17.2372C101.807 17.5675 101.783 17.9096 101.736 18.2635C101.712 18.6174 101.653 18.9241 101.559 19.1836H86.6956V15.6447H98.9402L96.7461 17.308C96.9584 16.2227 96.8994 15.2554 96.5691 14.4061C96.2624 13.5568 95.7434 12.8844 95.012 12.3889C94.3042 11.8935 93.4431 11.6458 92.4286 11.6458C91.4613 11.6458 90.6002 11.8935 89.8452 12.3889C89.0903 12.8608 88.5122 13.5686 88.1112 14.5123C87.7337 15.4324 87.5921 16.553 87.6865 17.8742C87.5921 19.0539 87.7455 20.1037 88.1466 21.0238C88.5712 21.9204 89.1846 22.6163 89.9868 23.1118C90.8125 23.6072 91.7562 23.8549 92.8179 23.8549C93.8796 23.8549 94.7761 23.6308 95.5074 23.1826C96.2624 22.7343 96.8522 22.1327 97.2769 21.3777L101.028 23.2179C100.651 24.1381 100.061 24.952 99.2587 25.6598C98.4565 26.3676 97.501 26.922 96.3922 27.3231C95.3069 27.7241 94.1037 27.9247 92.7825 27.9247ZM105.321 27.5V8.24844H109.674V12.5305L109.32 11.8935C109.768 10.4544 110.464 9.45167 111.408 8.88544C112.375 8.31922 113.531 8.03611 114.876 8.03611H116.008V12.1412H114.345C113.024 12.1412 111.962 12.5541 111.16 13.3798C110.358 14.182 109.957 15.3144 109.957 16.7772V27.5H105.321ZM119.334 27.5V22.5456H124.006V27.5H119.334Z" fill="white"/>
</svg>
