<svg width="49" height="50" viewBox="0 0 49 50" fill="none" xmlns="http://www.w3.org/2000/svg">
<path d="M36.6885 3.64941L45.1585 12.4787V46.0545H13.5176V46.1641H45.2666V12.5899L36.6885 3.64941Z" fill="#909090"/>
<path d="M36.5831 3.54004H13.4092V46.0547H45.1582V12.4805L36.5831 3.54004Z" fill="#F4F4F4"/>
<path d="M13.1767 5.82324H3.44922V16.216H34.0474V5.82324H13.1767Z" fill="#7A7B7C"/>
<path d="M34.2096 16.039H3.64648V5.63867H34.2096V16.039Z" fill="#DD2025"/>
<path d="M13.7807 7.39746H13.735H13.4199H11.791V14.7045H13.3559V12.2399L13.7015 12.2597C14.0373 12.2539 14.3699 12.1937 14.6864 12.0816C14.9639 11.9861 15.2192 11.8354 15.4369 11.6386C15.6584 11.4511 15.833 11.2144 15.9469 10.9475C16.0996 10.5037 16.1541 10.0321 16.1067 9.56521C16.0972 9.23169 16.0387 8.90137 15.9332 8.58485C15.8371 8.35637 15.6945 8.15039 15.5144 7.98003C15.3344 7.80968 15.1208 7.67867 14.8874 7.59536C14.6855 7.52229 14.477 7.46926 14.2647 7.43704C14.104 7.41224 13.9417 7.39902 13.7791 7.39746M13.4914 10.8896H13.3559V8.63661H13.6497C13.7794 8.62726 13.9095 8.64717 14.0305 8.69486C14.1514 8.74255 14.2601 8.81681 14.3485 8.91215C14.5316 9.15726 14.6295 9.45561 14.6271 9.76159C14.6271 10.1361 14.6271 10.4755 14.2891 10.7145C14.0456 10.8485 13.7685 10.9103 13.4914 10.8896Z" fill="#464648"/>
<path d="M19.0798 7.37728C18.9109 7.37728 18.7464 7.38946 18.6308 7.39403L18.2684 7.40316H17.0811V14.7102H18.4785C19.0126 14.7248 19.5443 14.6343 20.0434 14.4438C20.4452 14.2844 20.801 14.0276 21.0786 13.6963C21.3486 13.3621 21.5424 12.973 21.6464 12.5561C21.766 12.084 21.8243 11.5985 21.82 11.1115C21.8495 10.5363 21.805 9.95969 21.6875 9.39585C21.5761 8.98081 21.3673 8.59831 21.0786 8.28001C20.8521 8.02298 20.5748 7.81566 20.2642 7.67109C19.9974 7.54765 19.7169 7.45668 19.4284 7.40012C19.3137 7.38117 19.1976 7.37251 19.0814 7.37424M18.8043 13.3675H18.6521V8.7032H18.6719C18.9857 8.66709 19.3032 8.72372 19.5852 8.86609C19.7918 9.031 19.96 9.23875 20.0785 9.47501C20.2063 9.72365 20.2799 9.99655 20.2946 10.2757C20.3083 10.6106 20.2946 10.8847 20.2946 11.1115C20.3008 11.3728 20.284 11.6341 20.2444 11.8924C20.1975 12.1576 20.1107 12.4143 19.9871 12.6536C19.8472 12.8761 19.6582 13.0635 19.4345 13.2016C19.2467 13.3231 19.0243 13.3797 18.8012 13.363" fill="#464648"/>
<path d="M26.5351 7.40332H22.8359V14.7103H24.4009V11.8119H26.3798V10.454H24.4009V8.76121H26.5321V7.40332" fill="#464648"/>
<path d="M33.1579 31.3288C33.1579 31.3288 38.011 30.4489 38.011 32.1067C38.011 33.7644 35.0044 33.0901 33.1579 31.3288ZM29.5698 31.4551C28.7988 31.6255 28.0473 31.8749 27.3275 32.1995L27.9364 30.8294C28.5453 29.4594 29.1771 27.5915 29.1771 27.5915C29.9037 28.8144 30.7491 29.9627 31.701 31.0197C30.9832 31.1268 30.2717 31.2731 29.5698 31.4582V31.4551ZM27.6487 21.5602C27.6487 20.1155 28.116 19.7212 28.4799 19.7212C28.8437 19.7212 29.2532 19.8963 29.2669 21.1507C29.1484 22.412 28.8843 23.6554 28.4799 24.856C27.9259 23.8479 27.6393 22.7149 27.6472 21.5647L27.6487 21.5602ZM20.5715 37.5687C19.0827 36.6781 23.6938 33.9365 24.5295 33.8482C24.5249 33.8497 22.1304 38.5003 20.5715 37.5687ZM39.4282 32.303C39.413 32.1508 39.276 30.4656 36.2771 30.5372C35.0271 30.517 33.7777 30.6051 32.5429 30.8005C31.3468 29.5955 30.3167 28.2362 29.48 26.7588C30.0071 25.2356 30.3262 23.6483 30.4284 22.0397C30.3843 20.2129 29.9474 19.1656 28.5468 19.1808C27.1463 19.1961 26.9423 20.4215 27.1265 22.2452C27.307 23.4707 27.6473 24.6673 28.1389 25.8043C28.1389 25.8043 27.4919 27.8183 26.6364 29.8217C25.7808 31.825 25.1963 32.8754 25.1963 32.8754C23.7086 33.3597 22.3081 34.0792 21.048 35.0066C19.7936 36.1742 19.2837 37.0709 19.9443 37.9675C20.5137 38.7408 22.5064 38.9159 24.2875 36.5822C25.2338 35.3769 26.0984 34.1095 26.8754 32.7886C26.8754 32.7886 29.5911 32.0442 30.436 31.8402C31.2809 31.6363 32.3024 31.4749 32.3024 31.4749C32.3024 31.4749 34.7822 33.9699 37.1737 33.8816C39.5652 33.7934 39.4495 32.4522 39.4343 32.3061" fill="#DD2025"/>
<path d="M36.4658 3.65723V12.5977H45.0409L36.4658 3.65723Z" fill="#909090"/>
<path d="M36.584 3.54004V12.4805H45.1591L36.584 3.54004Z" fill="#F4F4F4"/>
<path d="M13.6644 7.28027H13.6188H13.3037H11.6748V14.5873H13.2458V12.1242L13.5929 12.144C13.9287 12.1382 14.2613 12.0781 14.5778 11.9659C14.8553 11.8704 15.1106 11.7197 15.3283 11.5229C15.5481 11.3349 15.7212 11.0983 15.8337 10.8318C15.9864 10.388 16.0409 9.91643 15.9936 9.44955C15.9841 9.11602 15.9256 8.78571 15.82 8.46919C15.7239 8.2407 15.5813 8.03472 15.4013 7.86437C15.2212 7.69401 15.0077 7.56301 14.7742 7.47969C14.5714 7.40591 14.3619 7.35237 14.1485 7.31985C13.9878 7.29506 13.8255 7.28183 13.6629 7.28027M13.3752 10.7724H13.2397V8.51942H13.5351C13.6647 8.51007 13.7948 8.52998 13.9158 8.57767C14.0367 8.62536 14.1454 8.69962 14.2338 8.79496C14.4169 9.04007 14.5148 9.33842 14.5124 9.6444C14.5124 10.0189 14.5124 10.3584 14.1744 10.5974C13.9309 10.7313 13.6538 10.7916 13.3767 10.7709" fill="white"/>
<path d="M18.963 7.2601C18.794 7.2601 18.6296 7.27227 18.5139 7.27684L18.1561 7.28598H16.9688V14.593H18.3662C18.9003 14.6076 19.432 14.5171 19.9311 14.3266C20.3329 14.1672 20.6886 13.9104 20.9663 13.5791C21.2363 13.2449 21.4301 12.8558 21.5341 12.4389C21.6537 11.9668 21.712 11.4813 21.7077 10.9943C21.7372 10.4191 21.6927 9.8425 21.5752 9.27866C21.4638 8.86363 21.255 8.48112 20.9663 8.16282C20.7398 7.9058 20.4625 7.69847 20.1519 7.5539C19.8851 7.43047 19.6045 7.33949 19.3161 7.28293C19.2014 7.26398 19.0853 7.25532 18.969 7.25705M18.692 13.2503H18.5398V8.58602H18.5596C18.8734 8.54991 19.1909 8.60653 19.4729 8.7489C19.6794 8.91381 19.8477 9.12156 19.9662 9.35782C20.094 9.60647 20.1676 9.87937 20.1823 10.1585C20.196 10.4935 20.1823 10.7675 20.1823 10.9943C20.1885 11.2556 20.1717 11.5169 20.1321 11.7752C20.0852 12.0405 19.9984 12.2971 19.8748 12.5364C19.7349 12.7589 19.5459 12.9463 19.3222 13.0844C19.1344 13.2059 18.912 13.2626 18.6889 13.2458" fill="white"/>
<path d="M26.4179 7.28613H22.7188V14.5932H24.2837V11.6947H26.2627V10.3368H24.2837V8.64402H26.4149V7.28613" fill="white"/>
</svg>
