<svg width="24" height="24" viewBox="0 0 24 24" fill="none" xmlns="http://www.w3.org/2000/svg">
<path d="M12.28 10.8732C11.5302 10.8653 10.7995 10.6358 10.1799 10.2135C9.56024 9.79114 9.07942 9.19494 8.79793 8.49992C8.51644 7.80491 8.44687 7.04214 8.59798 6.30767C8.74909 5.5732 9.11412 4.89985 9.64712 4.3724C10.1801 3.84496 10.8573 3.48699 11.5933 3.34358C12.3293 3.20017 13.0913 3.27772 13.7833 3.56648C14.4753 3.85523 15.0665 4.34227 15.4823 4.96628C15.8981 5.59029 16.12 6.32337 16.12 7.07323C16.113 8.08581 15.7049 9.05432 14.9851 9.76658C14.2653 10.4788 13.2926 10.8768 12.28 10.8732ZM12.28 4.60656C11.7939 4.61445 11.321 4.76579 10.9207 5.04157C10.5203 5.31736 10.2104 5.7053 10.0298 6.15666C9.84926 6.60803 9.80608 7.10268 9.90573 7.5785C10.0054 8.05433 10.2434 8.49009 10.5899 8.83107C10.9364 9.17205 11.376 9.40304 11.8533 9.49502C12.3307 9.587 12.8246 9.53587 13.273 9.34806C13.7214 9.16024 14.1043 8.84412 14.3736 8.43939C14.6429 8.03466 14.7866 7.55937 14.7867 7.07323C14.7796 6.41427 14.512 5.7849 14.0423 5.32268C13.5726 4.86047 12.939 4.603 12.28 4.60656Z" fill="#09090A"/>
<path d="M12.2802 10.8732C11.5304 10.8653 10.7997 10.6358 10.18 10.2135C9.56041 9.79114 9.07959 9.19494 8.7981 8.49992C8.51661 7.80491 8.44704 7.04214 8.59815 6.30767C8.74926 5.5732 9.1143 4.89985 9.64729 4.3724C10.1803 3.84496 10.8574 3.48699 11.5934 3.34358C12.3295 3.20017 13.0914 3.27772 13.7835 3.56648C14.4755 3.85523 15.0666 4.34227 15.4825 4.96628C15.8983 5.59029 16.1202 6.32337 16.1202 7.07323C16.1131 8.08581 15.705 9.05432 14.9853 9.76658C14.2655 10.4788 13.2928 10.8768 12.2802 10.8732ZM12.2802 4.60656C11.7941 4.61445 11.3212 4.76579 10.9209 5.04157C10.5205 5.31736 10.2106 5.7053 10.03 6.15666C9.84943 6.60803 9.80625 7.10268 9.9059 7.5785C10.0055 8.05433 10.2436 8.49009 10.5901 8.83107C10.9366 9.17205 11.3761 9.40304 11.8535 9.49502C12.3309 9.587 12.8248 9.53587 13.2732 9.34805C13.7216 9.16024 14.1045 8.84412 14.3738 8.43939C14.6431 8.03466 14.7868 7.55937 14.7869 7.07323C14.7798 6.41427 14.5122 5.7849 14.0425 5.32268C13.5728 4.86047 12.9392 4.603 12.2802 4.60656ZM14.6069 11.7666C11.6499 11.252 8.60577 11.7203 5.94019 13.0999C5.75098 13.205 5.5943 13.36 5.4873 13.5482C5.3803 13.7363 5.3271 13.9502 5.33353 14.1666V16.5399C5.33353 16.7167 5.40377 16.8863 5.52879 17.0113C5.65381 17.1363 5.82338 17.2066 6.00019 17.2066C6.17701 17.2066 6.34657 17.1363 6.4716 17.0113C6.59662 16.8863 6.66686 16.7167 6.66686 16.5399V14.2532C9.13864 13.013 11.9495 12.6195 14.6669 13.1332L14.6069 11.7666Z" fill="#09090A"/>
<path d="M21.9998 14.667H17.5332V13.6803C17.5332 13.5035 17.4629 13.334 17.3379 13.2089C17.2129 13.0839 17.0433 13.0137 16.8665 13.0137C16.6897 13.0137 16.5201 13.0839 16.3951 13.2089C16.2701 13.334 16.1998 13.5035 16.1998 13.6803V14.667H11.3332C11.1564 14.667 10.9868 14.7372 10.8618 14.8623C10.7367 14.9873 10.6665 15.1569 10.6665 15.3337V22.0003C10.6665 22.1771 10.7367 22.3467 10.8618 22.4717C10.9868 22.5968 11.1564 22.667 11.3332 22.667H21.9998C22.1766 22.667 22.3462 22.5968 22.4712 22.4717C22.5963 22.3467 22.6665 22.1771 22.6665 22.0003V15.3337C22.6665 15.1569 22.5963 14.9873 22.4712 14.8623C22.3462 14.7372 22.1766 14.667 21.9998 14.667ZM21.3332 21.3337H11.9998V16.0003H16.1998V16.2737C16.1998 16.4505 16.2701 16.6201 16.3951 16.7451C16.5201 16.8701 16.6897 16.9403 16.8665 16.9403C17.0433 16.9403 17.2129 16.8701 17.3379 16.7451C17.4629 16.6201 17.5332 16.4505 17.5332 16.2737V16.0003H21.3332V21.3337Z" fill="#09090A"/>
<path d="M14.5402 18.2798H18.5135V19.2131H14.5402V18.2798ZM7.22683 8.15975C5.38113 8.19063 3.56743 8.64691 1.92683 9.49309C1.7484 9.58733 1.59895 9.7283 1.49444 9.90091C1.38993 10.0735 1.3343 10.2713 1.3335 10.4731V12.5398C1.3335 12.7166 1.40373 12.8861 1.52876 13.0112C1.65378 13.1362 1.82335 13.2064 2.00016 13.2064C2.17697 13.2064 2.34654 13.1362 2.47157 13.0112C2.59659 12.8861 2.66683 12.7166 2.66683 12.5398V10.6064C4.23436 9.82617 5.96987 9.44381 7.72016 9.49309C7.49134 9.07519 7.32512 8.62595 7.22683 8.15975ZM22.0735 9.48642C20.6021 8.71456 18.985 8.26031 17.3268 8.15309C17.2288 8.61841 17.065 9.06738 16.8402 9.48642C18.4022 9.52402 19.9366 9.90648 21.3335 10.6064V12.5398C21.3335 12.7166 21.4037 12.8861 21.5288 13.0112C21.6538 13.1362 21.8234 13.2064 22.0002 13.2064C22.177 13.2064 22.3465 13.1362 22.4716 13.0112C22.5966 12.8861 22.6668 12.7166 22.6668 12.5398V10.4731C22.6672 10.2702 22.6122 10.071 22.5076 9.8971C22.403 9.72321 22.2529 9.5812 22.0735 9.48642ZM7.10683 7.07309V6.62642C6.58457 6.55653 6.1094 6.28791 5.78021 5.87648C5.45103 5.46506 5.2932 4.94252 5.33959 4.41766C5.38597 3.89279 5.633 3.40604 6.02924 3.05872C6.42549 2.71141 6.94041 2.5303 7.46683 2.55309C8.01437 2.55209 8.54065 2.765 8.9335 3.14642C9.28025 2.86076 9.6609 2.61894 10.0668 2.42642C9.61324 1.90486 9.01225 1.53298 8.34309 1.3598C7.67392 1.18662 6.96798 1.22027 6.31832 1.45631C5.66866 1.69236 5.10578 2.11971 4.70385 2.68206C4.30192 3.2444 4.07982 3.91533 4.06683 4.60642C4.08082 5.45226 4.40963 6.2625 4.98903 6.87888C5.56843 7.49527 6.35681 7.87352 7.20016 7.93975C7.14354 7.65418 7.11231 7.36416 7.10683 7.07309ZM16.5135 1.21975C16.0554 1.21985 15.6018 1.31129 15.1794 1.48872C14.7571 1.66614 14.3743 1.926 14.0535 2.25309C14.5038 2.41738 14.9298 2.64162 15.3202 2.91975C15.6314 2.70371 15.9954 2.57617 16.3734 2.55076C16.7515 2.52534 17.1293 2.60299 17.4666 2.77543C17.804 2.94787 18.0882 3.20864 18.289 3.52992C18.4898 3.8512 18.5997 4.22095 18.6068 4.59975C18.6026 4.98884 18.4883 5.36879 18.2771 5.69561C18.0659 6.02242 17.7665 6.28274 17.4135 6.44642C17.4406 6.65197 17.454 6.85909 17.4535 7.06642C17.4514 7.33438 17.4291 7.60181 17.3868 7.86642C18.1131 7.67971 18.7573 7.25814 19.2191 6.66733C19.6808 6.07651 19.9344 5.34961 19.9402 4.59975C19.9314 3.69796 19.566 2.83629 18.924 2.20298C18.2819 1.56967 17.4153 1.21619 16.5135 1.21975Z" fill="#09090A"/>
</svg>
