<svg width="56" height="46" viewBox="0 0 56 46" fill="none" xmlns="http://www.w3.org/2000/svg">
<path d="M42.3915 20.4783C43.8194 20.0161 45.5065 20.1284 46.8651 20.7905C47.0368 20.8742 47.6713 21.2725 47.7549 21.4156C47.9962 21.5931 48.5473 22.2456 48.6228 22.5151C48.8639 22.9132 49.0603 23.4276 49.0928 23.8946C48.7166 23.9357 48.0534 23.9001 47.6514 23.8875C47.596 23.8917 47.4396 23.8997 47.42 23.8419C46.7864 21.9489 44.5463 21.382 42.8139 22.0287C41.9725 22.3428 41.6364 22.6864 41.2634 23.4791C41.0828 24.1939 41.0922 24.5757 41.3292 25.285C41.8092 26.1247 42.3436 26.419 43.2017 26.8365C43.9476 27.1437 44.7035 27.4252 45.4683 27.6813C45.8555 27.8149 46.7969 28.1265 47.1373 28.3039C47.416 28.3737 47.9061 28.6129 48.1829 28.7405C49.7426 29.4526 51.1157 30.4591 51.9971 31.9574C52.9987 33.6593 53.1247 35.7108 52.6773 37.6049C52.1221 39.9562 50.0933 41.9771 47.839 42.7738C47.5074 42.8963 46.7971 43.1226 46.4542 43.1623C46.2205 43.244 45.8838 43.273 45.6344 43.3029C42.8977 43.6277 39.9789 42.9248 37.6789 41.3768C34.4382 39.1958 31.9345 35.7774 29.4574 32.7933C29.3344 32.6447 29.1288 32.4867 28.9388 32.4566C28.5419 32.394 28.1313 32.426 27.7306 32.4099C26.0735 32.3593 25.3328 32.4628 23.9377 33.3538C23.7404 33.5027 23.5833 33.6448 23.4098 33.8219C21.8938 35.4443 21.6681 37.2239 21.6226 39.3474L21.6245 43.4695C21.4205 43.4716 21.1374 43.4829 20.9397 43.47C20.4083 43.4899 19.7578 43.4722 19.2148 43.4724C18.2489 43.4762 17.2831 43.4751 16.3172 43.4692C16.2937 43.0261 16.3066 42.4968 16.3064 42.0481L16.3038 39.6513L16.3088 31.7467C15.1126 32.0331 13.8225 31.97 12.5925 31.9603L10.0946 31.9619C9.66534 31.9609 9.2001 31.938 8.77378 31.9568C8.32838 31.9767 8.12401 32.1379 7.84871 32.4612C7.76597 32.6619 7.69648 32.8521 7.687 33.0714C7.65381 33.8366 7.67136 34.6285 7.67399 35.3943L7.67947 39.0701C7.68014 39.6926 7.69817 40.4025 7.67885 41.0189C7.68689 41.8363 7.68826 42.654 7.68304 43.4713L6.00164 43.4775C5.99989 43.1151 5.98715 42.691 5.99941 42.3334L6.00139 33.7047C5.93091 32.4007 6.38507 31.0994 7.68262 30.5876C8.38086 30.2785 9.11675 30.3592 9.87513 30.3605L13.2119 30.36C14.6069 30.3586 15.5443 30.4486 16.854 29.8717C17.228 29.6785 17.6764 29.3975 17.9751 29.1C17.977 29.2841 17.997 29.8986 17.9795 30.0491C18.014 31.7892 17.95 33.5508 17.9818 35.2933C17.9868 35.5663 17.9879 35.8822 17.9759 36.1544C17.9892 36.281 17.9812 36.4452 17.9826 36.5758C18.0016 38.3344 17.9474 40.107 17.9838 41.864C18.6377 41.8565 19.2834 41.8729 19.9409 41.8554C19.9775 41.4575 19.962 40.8916 19.9616 40.4832L19.9596 38.1498L19.9622 30.7821C19.9618 29.6165 19.9133 28.2117 19.9648 27.0759C19.953 26.8779 19.9582 26.6413 19.9612 26.4407C19.9813 25.1144 19.9289 23.7695 19.9673 22.445C19.9335 21.958 19.9574 21.1325 19.9632 20.6261C19.9597 20.5197 19.9417 20.4112 19.9919 20.3241C20.0667 20.2853 20.1201 20.2908 20.2075 20.2907C21.9304 20.2881 23.6513 20.2836 25.3742 20.3088C26.4503 20.3246 27.5581 20.2621 28.6357 20.2997C29.0619 20.3146 29.6673 20.4089 30.0602 20.5339C30.1107 20.5499 30.1604 20.5672 30.2099 20.5859C31.0891 20.8133 32.1882 21.6239 32.6017 22.4042C33.7021 24.48 33.2636 27.1469 31.1127 28.3568C29.386 29.3282 27.793 28.9353 25.9193 29.0622C24.7574 29.1508 23.8789 29.5036 22.8515 30.037C22.833 29.4421 22.8357 28.8467 22.8595 28.252C23.9228 27.8046 24.4505 27.6555 25.5786 27.5026C26.8636 27.3796 28.1343 27.5411 29.3932 27.3116C29.6856 27.2584 29.9959 27.1012 30.2622 26.9668C31.0945 26.4205 31.4753 25.7437 31.497 24.7519C31.5435 22.6171 29.7751 21.7907 27.8723 21.9023C27.4829 21.9251 26.9264 21.9059 26.5151 21.9059L21.629 21.9001C21.61 22.6616 21.6195 23.4631 21.6197 24.2261C21.6279 25.4861 21.6282 26.746 21.6207 28.0059C21.6306 29.7909 21.5941 31.6185 21.6299 33.3987C21.9858 33.022 22.2148 32.706 22.619 32.3424C23.7013 31.3692 25.1769 30.8536 26.6196 30.7942C27.2639 30.7676 27.983 30.817 28.6394 30.795C28.9767 30.7834 29.5238 30.7297 29.8277 30.7396C29.9304 30.813 30.0105 30.8923 30.0916 30.9893C30.8303 31.8746 31.5419 32.7815 32.2838 33.6644C32.3494 33.7423 32.5453 33.9721 32.5762 34.043C32.7866 34.2639 32.9771 34.51 33.176 34.7419C34.0394 35.749 34.917 36.7853 35.8589 37.7183C36.3009 38.1562 36.7577 38.5786 37.2285 38.9852C37.2984 39.0448 37.8125 39.4546 37.8383 39.5005C37.9947 39.611 38.7148 40.0634 38.8003 40.1529C39.1735 40.3555 39.4995 40.5587 39.8854 40.7505C40.5174 41.0652 41.0989 41.2148 41.7385 41.4378C42.1794 41.5284 42.7311 41.6095 43.1401 41.7014C44.7766 41.8772 45.8789 41.7151 47.4095 41.2076C47.5504 41.1315 47.6288 41.0995 47.7782 41.042C47.7551 41.0684 48.7609 40.4633 48.873 40.387C48.9305 40.3115 49.2575 40.0801 49.3532 39.9928C49.8299 39.561 50.2314 39.0529 50.5415 38.4891C51.3251 37.0328 51.4264 35.3169 50.9631 33.7294C50.1876 31.0803 47.3359 30.0719 45.0037 29.222C42.9217 28.4632 40.314 27.8904 39.6073 25.4601C39.3049 24.3951 39.442 23.2533 39.9878 22.29C40.4731 21.4178 41.4423 20.7465 42.3915 20.4783Z" fill="#C7A46B"/>
<path d="M6.31445 34.1646C6.45206 34.1973 6.51728 34.2253 6.51959 34.3747C6.44038 34.3798 6.43925 34.3728 6.37019 34.3379C6.31545 34.2669 6.31937 34.2583 6.31445 34.1646Z" fill="#C7A46B"/>
<path d="M48.8008 41.4485C48.8199 41.4536 48.8384 41.4592 48.8569 41.4657C48.9682 41.5038 49.005 41.5863 49.0496 41.6868C48.8946 41.643 48.843 41.6043 48.8008 41.4485Z" fill="#C7A46B"/>
<path d="M20.2129 35.6208C20.3538 35.6646 20.3712 35.6937 20.4026 35.8283C20.2774 35.7756 20.2383 35.753 20.2129 35.6208Z" fill="#C7A46B"/>
<path d="M7.21289 33.4248C7.32127 33.4581 7.37509 33.5164 7.41811 33.6175C7.315 33.5809 7.24812 33.5309 7.21289 33.4248Z" fill="#C7A46B"/>
<path d="M27.5127 1.75767C28.6548 1.65946 29.6861 2.61744 29.7071 3.74737C29.7127 4.06376 29.6606 4.26287 29.5743 4.56043C29.9785 4.6818 30.4468 4.76152 30.8927 4.89665C32.2529 5.31829 33.5116 6.01567 34.5902 6.94525C36.8808 8.93859 38.0476 11.3127 38.2596 14.3296C38.8597 14.363 39.8803 14.1873 40.3906 14.4561C40.6762 14.825 40.5607 15.3893 40.0651 15.4365C39.6228 15.4787 39.1141 15.4558 38.6651 15.4561L36.1201 15.457L27.6847 15.4535L19.352 15.4534L16.3608 15.4538C16.0908 15.4528 15.445 15.4772 15.2228 15.4617C15.0786 15.4526 14.9413 15.3966 14.832 15.3023C14.7069 15.1922 14.6334 15.0349 14.6292 14.8683C14.6092 14.1655 15.7137 14.3491 16.1618 14.3301C16.4015 14.32 16.6835 14.3335 16.9247 14.3389C17.0682 12.5846 17.4674 11.0811 18.3922 9.55882C19.6632 7.45758 21.6192 5.85821 23.9311 5.02989C24.5056 4.82622 25.0432 4.71366 25.6324 4.56975C25.5705 4.39321 25.5281 4.22267 25.5088 4.03595C25.453 3.49036 25.6187 2.94523 25.9687 2.52293C26.3797 2.02067 26.8858 1.81855 27.5127 1.75767ZM24.1791 14.3463C25.3757 14.3341 26.5724 14.3316 27.7691 14.3387C28.7163 14.3378 29.8159 14.3168 30.754 14.3495L30.8338 14.3504C31.3406 14.3264 31.885 14.3319 32.3943 14.3404C33.5468 14.3598 34.7294 14.3068 35.8793 14.3479C36.2055 14.3253 36.7774 14.3434 37.12 14.3431C37.0463 13.8658 37.0106 13.4502 36.9104 12.9705C36.5868 11.414 35.8677 9.96714 34.8219 8.76971C33.1359 6.85962 30.7621 5.69473 28.2197 5.52973C23.005 5.1967 18.4134 9.0792 18.078 14.3268C20.1124 14.3552 22.1452 14.331 24.1791 14.3463ZM26.7496 4.40326C27.0285 4.39784 27.3517 4.37075 27.6175 4.37121L28.4734 4.3909C28.7843 3.56751 28.4709 2.91081 27.5401 2.85505C27.2217 2.9082 26.989 3.00544 26.7959 3.2815C26.6406 3.50673 26.5834 3.78523 26.6372 4.05339C26.663 4.18261 26.6999 4.28251 26.7496 4.40326Z" fill="#C7A46B"/>
<path d="M25.6552 6.88696C25.7162 6.87592 25.8184 6.86565 25.8748 6.90744C26.0061 6.9795 26.0876 7.58332 25.9714 7.65186C25.8482 7.72455 25.5635 7.81206 25.4249 7.85529C23.344 8.50444 21.5872 10.1556 20.777 12.1754C20.6473 12.499 20.5949 12.8817 20.4112 13.1788C20.3588 13.2636 20.2371 13.2658 20.1499 13.2703C19.9541 13.2249 19.8351 13.1712 19.6641 13.0718C19.6944 12.1104 20.4238 10.7253 21.0053 9.96111C21.9796 8.68049 23.3502 7.62669 24.8808 7.10697C25.1213 7.02531 25.4068 6.92211 25.6552 6.88696Z" fill="#C7A46B"/>
<path d="M5.99805 16.9453C6.32008 16.9276 6.72711 16.9447 7.05256 16.9505C7.23867 16.9333 7.47125 16.9476 7.66159 16.9536C7.67491 18.0878 7.67843 19.2221 7.6722 20.3563L7.68897 26.9789C9.32453 27.0036 11.0269 26.9851 12.667 26.9837L14.0835 26.9829C14.4521 26.9835 14.826 26.9969 15.1904 26.9391C15.6529 26.8656 16.0946 26.4402 16.2176 25.9921C16.373 25.5182 16.3091 24.3238 16.3088 23.7726L16.3083 20.4905L16.3092 18.329C16.31 17.991 16.3296 17.4415 16.3009 17.1264C16.3105 17.0868 16.3169 17.0107 16.3506 17.0031C16.7097 16.9225 17.3583 16.9691 17.7174 16.9685L22.5183 16.9736L26.7864 16.9661C27.4206 16.9661 28.1322 16.9448 28.7586 16.9644C29.3659 16.9819 29.971 17.0488 30.5676 17.1645C31.7588 17.4217 32.9621 17.8755 33.9344 18.6233C34.2439 18.8613 35.0076 19.5184 35.1799 19.8366C36.3093 21.1544 36.9027 23.3928 36.7721 25.1262C36.7688 25.1455 36.7659 25.1649 36.7627 25.1842C36.6463 26.8626 36.1717 28.299 35.0858 29.6086C34.812 29.9389 34.4713 30.2019 34.2265 30.4851C34.4092 30.7549 34.6828 31.0792 34.8916 31.3388C35.2852 31.8321 35.6854 32.3203 36.0919 32.8032C37.8203 34.8544 40.1762 37.6841 42.9518 38.2857C44.631 38.6495 47.2086 38.3298 47.5453 36.2506C47.8447 34.4006 46.7601 33.6195 45.2203 32.9751C44.8423 32.8086 44.3916 32.6543 43.9996 32.5103C41.8001 31.8152 38.3454 30.6437 37.1657 28.5094C37.2431 28.217 37.4603 27.7804 37.5554 27.4754C37.6715 27.1044 37.7988 26.6485 37.8703 26.2692C39.1438 30.1428 43.7045 30.2624 46.8136 31.9124C48.5753 32.7766 49.5438 34.3654 49.2331 36.382C48.7583 39.4637 45.6479 40.3531 42.9908 39.932C41.9852 39.7716 41.0203 39.4193 40.1475 38.8951C37.7193 37.4382 35.3898 34.5779 33.592 32.3835C33.0433 31.7136 32.343 30.8524 31.8378 30.1549C32.3992 29.8322 33.0299 29.3988 33.4837 28.935C35.7469 26.6235 35.6249 22.4981 33.2994 20.2722C32.5021 19.509 31.4017 19.0102 30.3368 18.7634C29.3108 18.5257 28.2942 18.5684 27.2502 18.5708L24.6819 18.5719L20.3966 18.5732C19.6083 18.5731 18.7679 18.5576 17.984 18.5769C17.9709 19.0806 17.9903 19.6128 17.989 20.1201L17.9812 23.5719C17.9829 24.3897 18.0352 25.3121 17.9123 26.0941C17.6933 27.4878 16.5162 28.4984 15.1194 28.5827C14.2788 28.6338 13.3415 28.601 12.4741 28.6037L6.00347 28.6072L6.00262 23.0734L5.99923 18.3676C5.99649 17.902 6.01404 17.4063 5.99805 16.9453Z" fill="white"/>
<path d="M2.33197 16.9556C2.77585 16.9087 3.48825 16.9537 3.9695 16.9343L3.97117 36.1189L3.97074 40.334C3.97173 41.0971 3.98891 41.9209 3.96797 42.6792C3.96991 42.9014 3.98232 43.2628 3.963 43.4727C3.73206 43.4748 2.48553 43.4998 2.33311 43.4538C2.28202 41.6275 2.32268 39.6179 2.32276 37.7784L2.31886 27.1831L2.31979 19.8226C2.32643 18.9748 2.27028 17.7609 2.33197 16.9556Z" fill="#C7A46B"/>
<path d="M37.8407 19.396C40.8305 16.1007 47.1284 16.1146 50.3633 19.0585C50.5783 19.2542 50.9354 19.6128 51.0754 19.8535C51.1595 19.9086 51.3785 20.2532 51.4489 20.3572C52.1734 21.4265 52.5184 22.6326 52.6789 23.9036C52.1769 23.9191 51.4884 23.9139 50.9902 23.8877C50.8169 23.0541 50.6339 22.2526 50.2037 21.5111C49.4026 20.1475 48.0171 19.2084 46.505 18.8028C43.092 17.8872 38.8761 18.9164 37.8286 22.7066C37.795 22.2612 37.2898 20.9218 37.127 20.4231C37.25 20.0974 37.5822 19.6397 37.8407 19.396Z" fill="#C7A46B"/>
</svg>
