<svg width="92" height="91" viewBox="0 0 92 91" fill="none" xmlns="http://www.w3.org/2000/svg">
<rect x="22" y="13" width="48" height="48" rx="12" fill="url(#paint0_linear_3051_18787)"/>
<g filter="url(#filter0_d_3051_18787)">
<rect x="22" y="13" width="48" height="48" rx="12" fill="white" fill-opacity="0.01" shape-rendering="crispEdges"/>
</g>
<path d="M55.4198 35.922C55.7857 35.7606 56.0203 35.3966 56.0161 34.9967C56.012 34.5968 55.77 34.2378 55.4008 34.084L46.8298 30.18C46.3026 29.9395 45.697 29.9395 45.1698 30.18L36.5998 34.08C36.236 34.2393 36.001 34.5988 36.001 34.996C36.001 35.3931 36.236 35.7527 36.5998 35.912L45.1698 39.82C45.697 40.0605 46.3026 40.0605 46.8298 39.82L55.4198 35.922" stroke="#17304F" stroke-width="2" stroke-linecap="round" stroke-linejoin="round"/>
<path d="M56 35V41" stroke="#17304F" stroke-width="2" stroke-linecap="round" stroke-linejoin="round"/>
<path d="M40 37.5V41C40 42.6557 42.6885 44 46 44C49.3115 44 52 42.6557 52 41V37.5" stroke="#17304F" stroke-width="2" stroke-linecap="round" stroke-linejoin="round"/>
<defs>
<filter id="filter0_d_3051_18787" x="0" y="-1" width="92" height="92" filterUnits="userSpaceOnUse" color-interpolation-filters="sRGB">
<feFlood flood-opacity="0" result="BackgroundImageFix"/>
<feColorMatrix in="SourceAlpha" type="matrix" values="0 0 0 0 0 0 0 0 0 0 0 0 0 0 0 0 0 0 127 0" result="hardAlpha"/>
<feMorphology radius="8" operator="erode" in="SourceAlpha" result="effect1_dropShadow_3051_18787"/>
<feOffset dy="8"/>
<feGaussianBlur stdDeviation="15"/>
<feComposite in2="hardAlpha" operator="out"/>
<feColorMatrix type="matrix" values="0 0 0 0 0.827451 0 0 0 0 0.670588 0 0 0 0 0.411765 0 0 0 0.3 0"/>
<feBlend mode="normal" in2="BackgroundImageFix" result="effect1_dropShadow_3051_18787"/>
<feBlend mode="normal" in="SourceGraphic" in2="effect1_dropShadow_3051_18787" result="shape"/>
</filter>
<linearGradient id="paint0_linear_3051_18787" x1="22" y1="13" x2="70" y2="61" gradientUnits="userSpaceOnUse">
<stop stop-color="#D3AB69"/>
<stop offset="1" stop-color="#B98D46"/>
</linearGradient>
</defs>
</svg>
