<svg width="56" height="46" viewBox="0 0 56 46" fill="none" xmlns="http://www.w3.org/2000/svg">
<path d="M42.3915 20.4784C43.8194 20.0162 45.5065 20.1285 46.8651 20.7906C47.0368 20.8743 47.6713 21.2726 47.7549 21.4157C47.9962 21.5932 48.5473 22.2457 48.6228 22.5152C48.8639 22.9133 49.0603 23.4277 49.0928 23.8948C48.7166 23.9358 48.0534 23.9002 47.6514 23.8876C47.596 23.8919 47.4396 23.8998 47.42 23.842C46.7864 21.949 44.5463 21.3822 42.8139 22.0288C41.9725 22.3429 41.6364 22.6865 41.2634 23.4792C41.0828 24.194 41.0922 24.5759 41.3292 25.2851C41.8092 26.1248 42.3436 26.4191 43.2017 26.8367C43.9476 27.1438 44.7035 27.4254 45.4683 27.6814C45.8555 27.815 46.7969 28.1267 47.1373 28.304C47.416 28.3739 47.9061 28.613 48.1829 28.7406C49.7426 29.4527 51.1157 30.4592 51.9971 31.9575C52.9987 33.6594 53.1247 35.7109 52.6773 37.605C52.1221 39.9564 50.0933 41.9772 47.839 42.7739C47.5074 42.8965 46.7971 43.1227 46.4542 43.1625C46.2205 43.2441 45.8838 43.2732 45.6344 43.303C42.8977 43.6278 39.9789 42.9249 37.6789 41.377C34.4382 39.1959 31.9345 35.7776 29.4574 32.7934C29.3344 32.6448 29.1288 32.4868 28.9388 32.4567C28.5419 32.3941 28.1313 32.4261 27.7306 32.41C26.0735 32.3595 25.3328 32.4629 23.9377 33.3539C23.7404 33.5028 23.5833 33.6449 23.4098 33.822C21.8938 35.4444 21.6681 37.224 21.6226 39.3475L21.6245 43.4696C21.4205 43.4717 21.1374 43.483 20.9397 43.4701C20.4083 43.49 19.7578 43.4723 19.2148 43.4725C18.2489 43.4763 17.2831 43.4752 16.3172 43.4693C16.2937 43.0262 16.3066 42.4969 16.3064 42.0482L16.3038 39.6514L16.3088 31.7468C15.1126 32.0333 13.8225 31.9701 12.5925 31.9605L10.0946 31.9621C9.66534 31.961 9.2001 31.9381 8.77378 31.957C8.32838 31.9768 8.12401 32.1381 7.84871 32.4613C7.76597 32.662 7.69648 32.8523 7.687 33.0715C7.65381 33.8368 7.67136 34.6286 7.67399 35.3944L7.67947 39.0702C7.68014 39.6928 7.69817 40.4027 7.67885 41.0191C7.68689 41.8364 7.68826 42.6541 7.68304 43.4715L6.00164 43.4776C5.99989 43.1152 5.98715 42.6912 5.99941 42.3335L6.00139 33.7048C5.93091 32.4008 6.38507 31.0995 7.68262 30.5877C8.38086 30.2787 9.11675 30.3593 9.87513 30.3606L13.2119 30.3601C14.6069 30.3587 15.5443 30.4488 16.854 29.8719C17.228 29.6787 17.6764 29.3976 17.9751 29.1002C17.977 29.2842 17.997 29.8987 17.9795 30.0492C18.014 31.7893 17.95 33.5509 17.9818 35.2934C17.9868 35.5664 17.9879 35.8824 17.9759 36.1546C17.9892 36.2811 17.9812 36.4453 17.9826 36.5759C18.0016 38.3345 17.9474 40.1071 17.9838 41.8641C18.6377 41.8566 19.2834 41.873 19.9409 41.8555C19.9775 41.4576 19.962 40.8917 19.9616 40.4833L19.9596 38.1499L19.9622 30.7822C19.9618 29.6166 19.9133 28.2118 19.9648 27.0761C19.953 26.878 19.9582 26.6414 19.9612 26.4408C19.9813 25.1145 19.9289 23.7696 19.9673 22.4451C19.9335 21.9581 19.9574 21.1326 19.9632 20.6262C19.9597 20.5199 19.9417 20.4113 19.9919 20.3242C20.0667 20.2854 20.1201 20.2909 20.2075 20.2908C21.9304 20.2883 23.6513 20.2838 25.3742 20.309C26.4503 20.3247 27.5581 20.2622 28.6357 20.2998C29.0619 20.3147 29.6673 20.409 30.0602 20.534C30.1107 20.55 30.1604 20.5674 30.2099 20.586C31.0891 20.8134 32.1882 21.624 32.6017 22.4043C33.7021 24.4801 33.2636 27.147 31.1127 28.3569C29.386 29.3283 27.793 28.9354 25.9193 29.0623C24.7574 29.1509 23.8789 29.5037 22.8515 30.0371C22.833 29.4422 22.8357 28.8468 22.8595 28.2522C23.9228 27.8048 24.4505 27.6556 25.5786 27.5028C26.8636 27.3797 28.1343 27.5412 29.3932 27.3117C29.6856 27.2585 29.9959 27.1013 30.2622 26.967C31.0945 26.4206 31.4753 25.7438 31.497 24.752C31.5435 22.6172 29.7751 21.7909 27.8723 21.9024C27.4829 21.9252 26.9264 21.906 26.5151 21.906L21.629 21.9002C21.61 22.6618 21.6195 23.4633 21.6197 24.2263C21.6279 25.4862 21.6282 26.7461 21.6207 28.006C21.6306 29.791 21.5941 31.6187 21.6299 33.3988C21.9858 33.0221 22.2148 32.7061 22.619 32.3425C23.7013 31.3693 25.1769 30.8537 26.6196 30.7943C27.2639 30.7677 27.983 30.8171 28.6394 30.7951C28.9767 30.7836 29.5238 30.7298 29.8277 30.7398C29.9304 30.8131 30.0105 30.8924 30.0916 30.9894C30.8303 31.8747 31.5419 32.7816 32.2838 33.6645C32.3494 33.7425 32.5453 33.9722 32.5762 34.0431C32.7866 34.264 32.9771 34.5101 33.176 34.742C34.0394 35.7491 34.917 36.7855 35.8589 37.7184C36.3009 38.1564 36.7577 38.5787 37.2285 38.9853C37.2984 39.0449 37.8125 39.4547 37.8383 39.5006C37.9947 39.6111 38.7148 40.0636 38.8003 40.153C39.1735 40.3556 39.4995 40.5588 39.8854 40.7506C40.5174 41.0653 41.0989 41.2149 41.7385 41.438C42.1794 41.5285 42.7311 41.6097 43.1401 41.7016C44.7766 41.8773 45.8789 41.7153 47.4095 41.2077C47.5504 41.1316 47.6288 41.0997 47.7782 41.0422C47.7551 41.0685 48.7609 40.4634 48.873 40.3871C48.9305 40.3116 49.2575 40.0802 49.3532 39.9929C49.8299 39.5611 50.2314 39.053 50.5415 38.4893C51.3251 37.0329 51.4264 35.317 50.9631 33.7296C50.1876 31.0805 47.3359 30.072 45.0037 29.2222C42.9217 28.4633 40.314 27.8905 39.6073 25.4602C39.3049 24.3952 39.442 23.2534 39.9878 22.2901C40.4731 21.4179 41.4423 20.7466 42.3915 20.4784Z" fill="#C7A46B"/>
<path d="M6.31445 34.1646C6.45206 34.1973 6.51728 34.2253 6.51959 34.3747C6.44038 34.3798 6.43925 34.3728 6.37019 34.3379C6.31545 34.2669 6.31937 34.2583 6.31445 34.1646Z" fill="#C7A46B"/>
<path d="M48.8008 41.4485C48.8199 41.4536 48.8384 41.4592 48.8569 41.4657C48.9682 41.5038 49.005 41.5863 49.0496 41.6868C48.8946 41.643 48.843 41.6043 48.8008 41.4485Z" fill="#C7A46B"/>
<path d="M20.2129 35.6208C20.3538 35.6646 20.3712 35.6937 20.4026 35.8283C20.2774 35.7756 20.2383 35.753 20.2129 35.6208Z" fill="#C7A46B"/>
<path d="M7.21289 33.4248C7.32127 33.4581 7.37509 33.5164 7.41811 33.6175C7.315 33.5809 7.24812 33.5309 7.21289 33.4248Z" fill="#C7A46B"/>
<path d="M27.5127 1.75755C28.6548 1.65934 29.6861 2.61732 29.7071 3.74725C29.7127 4.06364 29.6606 4.26275 29.5743 4.5603C29.9785 4.68167 30.4468 4.7614 30.8927 4.89653C32.2529 5.31817 33.5116 6.01554 34.5902 6.94513C36.8808 8.93847 38.0476 11.3126 38.2596 14.3295C38.8597 14.3629 39.8803 14.1871 40.3906 14.456C40.6762 14.8249 40.5607 15.3891 40.0651 15.4364C39.6228 15.4786 39.1141 15.4557 38.6651 15.4559L36.1201 15.4569L27.6847 15.4533L19.352 15.4532L16.3608 15.4537C16.0908 15.4527 15.445 15.4771 15.2228 15.4615C15.0786 15.4525 14.9413 15.3965 14.832 15.3021C14.7069 15.1921 14.6334 15.0348 14.6292 14.8682C14.6092 14.1654 15.7137 14.349 16.1618 14.33C16.4015 14.3199 16.6835 14.3333 16.9247 14.3388C17.0682 12.5845 17.4674 11.081 18.3922 9.5587C19.6632 7.45746 21.6192 5.85809 23.9311 5.02977C24.5056 4.8261 25.0432 4.71354 25.6324 4.56963C25.5705 4.39309 25.5281 4.22255 25.5088 4.03583C25.453 3.49024 25.6187 2.94511 25.9687 2.52281C26.3797 2.02054 26.8858 1.81843 27.5127 1.75755ZM24.1791 14.3462C25.3757 14.334 26.5724 14.3315 27.7691 14.3386C28.7163 14.3377 29.8159 14.3167 30.754 14.3493L30.8338 14.3502C31.3406 14.3262 31.885 14.3318 32.3943 14.3403C33.5468 14.3597 34.7294 14.3066 35.8793 14.3477C36.2055 14.3252 36.7774 14.3433 37.12 14.3429C37.0463 13.8656 37.0106 13.4501 36.9104 12.9703C36.5868 11.4138 35.8677 9.96702 34.8219 8.76959C33.1359 6.8595 30.7621 5.69461 28.2197 5.5296C23.005 5.19658 18.4134 9.07908 18.078 14.3267C20.1124 14.3551 22.1452 14.3309 24.1791 14.3462ZM26.7496 4.40314C27.0285 4.39771 27.3517 4.37063 27.6175 4.37109L28.4734 4.39078C28.7843 3.56738 28.4709 2.91069 27.5401 2.85493C27.2217 2.90808 26.989 3.00532 26.7959 3.28138C26.6406 3.5066 26.5834 3.78511 26.6372 4.05327C26.663 4.18249 26.6999 4.28239 26.7496 4.40314Z" fill="#C7A46B"/>
<path d="M25.6552 6.88696C25.7162 6.87592 25.8184 6.86565 25.8748 6.90744C26.0061 6.9795 26.0876 7.58332 25.9714 7.65186C25.8482 7.72455 25.5635 7.81206 25.4249 7.85529C23.344 8.50444 21.5872 10.1556 20.777 12.1754C20.6473 12.499 20.5949 12.8817 20.4112 13.1788C20.3588 13.2636 20.2371 13.2658 20.1499 13.2703C19.9541 13.2249 19.8351 13.1712 19.6641 13.0718C19.6944 12.1104 20.4238 10.7253 21.0053 9.96111C21.9796 8.68049 23.3502 7.62669 24.8808 7.10697C25.1213 7.02531 25.4068 6.92211 25.6552 6.88696Z" fill="#C7A46B"/>
<path d="M5.99805 16.9452C6.32008 16.9275 6.72711 16.9446 7.05256 16.9504C7.23867 16.9332 7.47125 16.9474 7.66159 16.9535C7.67491 18.0877 7.67843 19.2219 7.6722 20.3562L7.68897 26.9788C9.32453 27.0035 11.0269 26.9849 12.667 26.9836L14.0835 26.9828C14.4521 26.9833 14.826 26.9968 15.1904 26.939C15.6529 26.8654 16.0946 26.4401 16.2176 25.992C16.373 25.5181 16.3091 24.3237 16.3088 23.7725L16.3083 20.4903L16.3092 18.3288C16.31 17.9909 16.3296 17.4414 16.3009 17.1263C16.3105 17.0867 16.3169 17.0106 16.3506 17.003C16.7097 16.9224 17.3583 16.969 17.7174 16.9684L22.5183 16.9734L26.7864 16.966C27.4206 16.966 28.1322 16.9447 28.7586 16.9643C29.3659 16.9818 29.971 17.0487 30.5676 17.1643C31.7588 17.4215 32.9621 17.8754 33.9344 18.6231C34.2439 18.8611 35.0076 19.5183 35.1799 19.8365C36.3093 21.1543 36.9027 23.3927 36.7721 25.1261C36.7688 25.1454 36.7659 25.1648 36.7627 25.1841C36.6463 26.8625 36.1717 28.2989 35.0858 29.6085C34.812 29.9387 34.4713 30.2018 34.2265 30.485C34.4092 30.7548 34.6828 31.0791 34.8916 31.3387C35.2852 31.832 35.6854 32.3202 36.0919 32.8031C37.8203 34.8543 40.1762 37.684 42.9518 38.2856C44.631 38.6494 47.2086 38.3296 47.5453 36.2505C47.8447 34.4005 46.7601 33.6194 45.2203 32.975C44.8423 32.8084 44.3916 32.6542 43.9996 32.5102C41.8001 31.8151 38.3454 30.6435 37.1657 28.5093C37.2431 28.2169 37.4603 27.7803 37.5554 27.4753C37.6715 27.1042 37.7988 26.6483 37.8703 26.2691C39.1438 30.1427 43.7045 30.2623 46.8136 31.9123C48.5753 32.7765 49.5438 34.3653 49.2331 36.3818C48.7583 39.4635 45.6479 40.3529 42.9908 39.9319C41.9852 39.7715 41.0203 39.4192 40.1475 38.895C37.7193 37.4381 35.3898 34.5778 33.592 32.3834C33.0433 31.7135 32.343 30.8523 31.8378 30.1548C32.3992 29.8321 33.0299 29.3987 33.4837 28.9349C35.7469 26.6234 35.6249 22.4979 33.2994 20.2721C32.5021 19.5089 31.4017 19.0101 30.3368 18.7633C29.3108 18.5256 28.2942 18.5683 27.2502 18.5707L24.6819 18.5718L20.3966 18.5731C19.6083 18.573 18.7679 18.5575 17.984 18.5768C17.9709 19.0805 17.9903 19.6127 17.989 20.12L17.9812 23.5718C17.9829 24.3896 18.0352 25.312 17.9123 26.0939C17.6933 27.4877 16.5162 28.4983 15.1194 28.5826C14.2788 28.6337 13.3415 28.6009 12.4741 28.6036L6.00347 28.6071L6.00262 23.0733L5.99923 18.3675C5.99649 17.9019 6.01404 17.4061 5.99805 16.9452Z" fill="#192434"/>
<path d="M2.33197 16.9554C2.77585 16.9086 3.48825 16.9535 3.9695 16.9342L3.97117 36.1188L3.97074 40.3339C3.97173 41.097 3.98891 41.9208 3.96797 42.6791C3.96991 42.9013 3.98232 43.2627 3.963 43.4725C3.73206 43.4747 2.48553 43.4997 2.33311 43.4537C2.28202 41.6274 2.32268 39.6178 2.32276 37.7783L2.31886 27.183L2.31979 19.8225C2.32643 18.9746 2.27028 17.7608 2.33197 16.9554Z" fill="#C7A46B"/>
<path d="M37.8407 19.3962C40.8305 16.1008 47.1284 16.1147 50.3633 19.0586C50.5783 19.2543 50.9354 19.6129 51.0754 19.8537C51.1595 19.9087 51.3785 20.2533 51.4489 20.3573C52.1734 21.4266 52.5184 22.6327 52.6789 23.9037C52.1769 23.9193 51.4884 23.914 50.9902 23.8878C50.8169 23.0542 50.6339 22.2527 50.2037 21.5113C49.4026 20.1477 48.0171 19.2086 46.505 18.8029C43.092 17.8873 38.8761 18.9166 37.8286 22.7067C37.795 22.2613 37.2898 20.9219 37.127 20.4232C37.25 20.0976 37.5822 19.6398 37.8407 19.3962Z" fill="#C7A46B"/>
</svg>
