<svg width="71" height="36" viewBox="0 0 71 36" fill="none" xmlns="http://www.w3.org/2000/svg">
<path d="M61.2122 12.2113C61.9662 12.0936 63.3189 12.2576 64.0472 12.4258C69.6449 13.7184 71.723 19.3967 70.5065 24.6101C69.3837 29.4239 64.8591 32.211 60.0449 31.1866C58.4168 30.84 57.06 29.6625 56.2168 28.2786L56.2141 30.7259C56.2136 31.297 56.2154 31.9011 56.2118 32.4685C56.2021 34.0699 56.1846 34.863 57.8122 35.548C56.1207 35.5894 54.3782 35.5591 52.6816 35.5627L52.6872 12.2705C53.8633 12.2627 55.0393 12.2621 56.2154 12.2688L56.2145 15.3088C57.4669 13.4168 58.9157 12.4204 61.2122 12.2113Z" fill="#B48D50"/>
<rect x="58" y="15" width="10" height="14" rx="5" fill="white"/>
<path d="M61.7212 16.4138C62.1387 16.5258 62.6542 16.9252 63.1221 16.8433C63.5001 16.7771 63.9241 16.5589 64.2783 16.399C64.1953 16.7819 64.0674 17.1184 63.9238 17.4804L63.6213 18.1846L62.3755 18.1789C62.1567 17.7173 61.8117 16.8992 61.7212 16.4138Z" fill="#B48D50"/>
<path d="M62.4128 19.1846L63.5792 19.1855C63.7129 19.8096 63.8358 20.7644 63.9297 21.4057C64.1315 22.812 64.3213 24.22 64.4993 25.6294C64.1083 26.1606 63.7112 26.6877 63.308 27.21C63.2178 27.3373 63.1025 27.4771 63.0048 27.601C62.525 26.9334 62.001 26.2654 61.5005 25.6111C61.773 23.4646 62.0773 21.3222 62.4128 19.1846Z" fill="#B48D50"/>
<path d="M0 0.029894C1.94065 -0.0289567 4.17141 0.0173446 6.13325 0.0167469L6.12617 15.1402C6.80608 14.0957 7.45886 13.37 8.59914 12.8008C10.3361 11.9338 12.8139 12.0369 14.6006 12.6527C17.4731 13.6428 19.2072 16.0843 19.5337 19.0656C19.6578 20.1985 19.6183 21.3218 19.6178 22.4694L19.6127 27.199C19.6075 29.3383 19.3431 30.9866 21.743 31.8225C21.5262 31.8303 21.3093 31.8367 21.0923 31.8409C20.3009 31.857 19.4513 31.8763 18.6629 31.8349C15.4056 31.6643 15.8652 28.3531 15.8632 26.0446L15.8554 20.4082C15.8359 17.8677 15.2606 14.4514 12.6551 13.2871C11.569 12.8043 10.3341 12.7793 9.22925 13.2178C8.04047 13.677 7.22815 14.6393 6.71067 15.7793C6.06258 17.2073 6.12277 18.5804 6.12557 20.1044L6.13201 23.5245L6.12576 27.6892C6.12405 28.6367 5.99633 30.0836 6.36001 30.9692C6.53026 31.3834 7.02488 31.6556 7.42879 31.8308C6.44493 31.822 3.86276 32 3.0875 31.6721C2.70777 31.5112 2.49757 31.2846 2.40166 30.8832C2.24106 30.211 2.32313 29.4004 2.3246 28.7103L2.32782 25.6147L2.32791 10.6838L2.3303 5.94167C2.33154 5.0557 2.3526 4.16539 2.31637 3.28038C2.24685 1.58111 1.53563 0.758172 0.0371501 0.1127L0 0.029894Z" fill="#142B48"/>
<path d="M42.3287 12.1213C44.908 12.1118 47.3471 12.5021 48.8368 14.8141C48.0004 15.374 46.8317 16.0422 45.9512 16.5697C45.348 15.2965 44.7347 14.2619 43.4763 13.5324C41.8763 12.5772 39.1499 12.6301 38.1641 14.4485C37.5425 15.6521 38.1384 16.9204 39.1719 17.6376C42.9186 20.2371 49.4579 20.431 51.0818 25.3595C51.7214 28.1338 50.5554 30.4754 48.0781 31.8087L47.7352 31.3981C47.8593 31.2836 47.9779 31.1632 48.0906 31.0372C49.4207 29.5227 48.834 27.3319 47.3301 26.1843C44.2294 23.8183 39.9848 23.331 36.9682 20.8308C34.9958 19.1961 34.7894 16.1907 36.5664 14.3313C38.1145 12.7181 40.1641 12.224 42.3287 12.1213Z" fill="#142B48"/>
<path d="M31.2376 12.1191C32.8604 11.9471 34.3475 12.4246 35.5268 13.5501C34.8891 14.1675 33.7723 15.3271 33.205 15.9773C32.5942 15.2881 32.0962 14.7808 31.244 14.3923C29.4484 13.5737 27.5473 14.2201 26.7378 16.0461C26.4643 16.6758 26.2883 17.3434 26.2157 18.026C26.1534 18.6334 26.1676 19.4661 26.1668 20.0822L26.1666 23.1526L26.1665 26.9181C26.1667 27.1935 26.1666 27.485 26.1673 27.7591C26.1734 29.9016 26.0958 30.8823 28.2247 31.8308C27.396 31.8611 26.4909 31.8487 25.6602 31.8432C22.0986 31.8055 22.5064 28.9374 22.5072 26.3425L22.513 18.8529C22.5138 17.5844 22.5574 16.2791 22.4896 15.0162C22.4072 13.48 21.6848 12.8373 20.3799 12.2671C22.2659 12.3006 24.2683 12.2656 26.1624 12.2684C26.1962 13.3072 26.1672 14.4897 26.1528 15.5326C27.3745 13.5659 28.8634 12.3425 31.2376 12.1191Z" fill="#B89154"/>
<path d="M10.6103 19.0622C11.3493 19.0736 11.9521 19.3164 12.4866 19.8267C13.3018 20.605 13.2257 21.599 13.2259 22.628C13.226 23.319 13.2259 24.0147 13.2258 24.7075L13.2231 31.8404L10.7667 31.8358H8.05253C8.02867 31.1986 8.0546 30.4 8.05611 29.7489L8.05993 25.5512L8.05896 22.9636C8.0591 22.1172 7.95896 21.0776 8.41184 20.3401C8.92002 19.5123 9.6706 19.1393 10.6103 19.0622Z" fill="#B18A4D"/>
<path d="M9.07031 24.9517C9.23376 24.9613 9.24222 24.9508 9.38627 25.0377C9.60314 25.5328 9.62953 25.2652 10.0125 25.4708C10.1475 25.5429 9.9991 25.8009 9.86061 25.8809C9.71454 25.8717 9.68829 25.8519 9.54916 25.9052C9.54604 25.9177 9.54291 25.9301 9.53978 25.9425L9.52296 26.0041C9.46608 26.2165 9.40047 26.4827 9.11739 26.4032C8.78856 26.1071 8.82599 25.2928 9.07031 24.9517Z" fill="white"/>
<path d="M41.869 25.7549C43.1697 25.8055 42.2892 26.777 42.2801 26.9577C42.4883 27.0928 42.9725 27.108 43.2244 27.194C45.1141 27.839 45.8847 29.3908 46.0502 31.2459C44.7835 31.2538 43.5168 31.2519 42.2502 31.2409L37.9458 31.2423C37.9628 29.3034 39.1573 27.5995 41.0676 27.1158C41.3233 27.0515 41.6143 27.0229 41.8768 26.9903C41.4341 26.5158 41.103 26.1448 41.869 25.7549Z" fill="#AE874A"/>
<path d="M29.6259 3.24687C31.1091 3.26122 31.949 3.78995 32.7438 5.02766C33.3171 4.98531 33.7359 4.98135 34.2805 5.21023C34.8815 5.45864 35.3587 5.93704 35.6051 6.53892C35.8465 7.1449 35.8378 7.82186 35.5803 8.42127C35.2231 9.25074 34.6217 9.61961 33.8271 9.92435C33.8241 10.3435 33.8152 10.7626 33.8004 11.1814C33.5476 11.1063 33.3082 11.0667 33.0498 11.018L33.0602 9.96692C31.5458 9.15382 29.777 9.12214 28.1187 9.35929C28.2942 9.25046 28.4764 9.15263 28.6641 9.06646C30.3182 8.30389 31.8468 8.606 33.4739 9.21037C34.7192 8.69929 35.3357 7.6489 34.4548 6.46034C33.8285 5.82559 33.1468 5.84122 32.3389 6.01156C32.0026 5.36421 31.6276 4.85846 30.9544 4.5237C30.3041 4.20099 29.5526 4.14825 28.8636 4.37694C28.0182 4.66186 27.5143 5.2248 27.132 6.00379C26.1117 5.7814 24.9839 5.97428 24.6636 7.12683C24.5498 7.55106 24.6108 8.0032 24.8329 8.38214C25.1487 8.91754 25.5731 9.08954 26.1332 9.23244L26.1296 9.95198C25.3984 9.8769 24.8193 9.69088 24.3017 9.12646C23.8648 8.64683 23.6366 8.01313 23.6673 7.36508C23.7008 6.68715 24.0133 6.05331 24.5307 5.61391C25.1863 5.05271 25.8991 4.96057 26.711 5.02296C27.4121 3.90324 28.2986 3.32604 29.6259 3.24687Z" fill="#142B48"/>
<path d="M35.5263 21.5278C35.9732 22.0473 36.2918 22.3591 36.8169 22.7977C36.4302 23.0188 36.0711 23.2859 35.7483 23.5935C34.7957 24.5131 34.25 25.7751 34.2334 27.0988C34.2247 28.2197 34.6375 29.5503 35.3723 30.4046C35.6569 30.7356 36.0035 31.0515 36.3148 31.3687C36.3152 31.4869 36.2316 31.5407 36.1355 31.6602C35.9129 31.7292 34.9598 30.8722 34.7916 30.714C33.3963 29.4055 32.6107 27.4965 32.8662 25.582C33.1096 23.7591 34.1147 22.5981 35.5263 21.5278Z" fill="#142B48"/>
<path d="M37.0493 31.8395L46.9468 31.8363L46.99 32.3315L46.2019 32.6248C45.5036 32.8928 44.2962 33.1296 43.5472 33.2069C41.6723 33.4115 39.7753 33.2046 37.9881 32.6009C37.7233 32.5122 37.3445 32.4055 37.1288 32.222C37.0139 32.1236 37.0488 32.0009 37.0493 31.8395Z" fill="#142B48"/>
</svg>
